<mxfile host="app.diagrams.net" agent="Mozilla/5.0 (Windows NT 10.0; Win64; x64) AppleWebKit/537.36 (KHTML, like Gecko) Chrome/137.0.0.0 Safari/537.36" version="27.1.4">
  <diagram name="Page-1" id="GpMNLTKQVCM_7AERzQnK">
    <mxGraphModel dx="2887" dy="2219" grid="1" gridSize="10" guides="1" tooltips="1" connect="1" arrows="1" fold="1" page="1" pageScale="1" pageWidth="850" pageHeight="1100" math="0" shadow="0">
      <root>
        <mxCell id="0" />
        <mxCell id="1" parent="0" />
        <mxCell id="REJr0tu38mBbnm2SPOuz-141" value="" style="rounded=1;whiteSpace=wrap;html=1;fillColor=#bac8d3;strokeColor=#23445d;" parent="1" vertex="1">
          <mxGeometry x="-680" y="1460" width="1250" height="260" as="geometry" />
        </mxCell>
        <mxCell id="REJr0tu38mBbnm2SPOuz-140" value="" style="rounded=1;whiteSpace=wrap;html=1;fillColor=#fad9d5;strokeColor=#ae4132;" parent="1" vertex="1">
          <mxGeometry x="-680" y="1340" width="1250" height="120" as="geometry" />
        </mxCell>
        <mxCell id="REJr0tu38mBbnm2SPOuz-139" value="" style="rounded=1;whiteSpace=wrap;html=1;fillColor=#b0e3e6;strokeColor=#0e8088;" parent="1" vertex="1">
          <mxGeometry x="-680" y="1130" width="1250" height="210" as="geometry" />
        </mxCell>
        <mxCell id="REJr0tu38mBbnm2SPOuz-14" style="edgeStyle=orthogonalEdgeStyle;rounded=0;orthogonalLoop=1;jettySize=auto;html=1;exitX=0.25;exitY=1;exitDx=0;exitDy=0;entryX=0.5;entryY=0;entryDx=0;entryDy=0;" parent="1" source="REJr0tu38mBbnm2SPOuz-1" target="REJr0tu38mBbnm2SPOuz-3" edge="1">
          <mxGeometry relative="1" as="geometry" />
        </mxCell>
        <mxCell id="REJr0tu38mBbnm2SPOuz-43" style="edgeStyle=orthogonalEdgeStyle;rounded=0;orthogonalLoop=1;jettySize=auto;html=1;exitX=0.5;exitY=1;exitDx=0;exitDy=0;entryX=0.5;entryY=0;entryDx=0;entryDy=0;" parent="1" source="REJr0tu38mBbnm2SPOuz-1" target="REJr0tu38mBbnm2SPOuz-27" edge="1">
          <mxGeometry relative="1" as="geometry" />
        </mxCell>
        <mxCell id="REJr0tu38mBbnm2SPOuz-45" style="edgeStyle=orthogonalEdgeStyle;rounded=0;orthogonalLoop=1;jettySize=auto;html=1;exitX=0.75;exitY=1;exitDx=0;exitDy=0;entryX=0.5;entryY=0;entryDx=0;entryDy=0;" parent="1" source="REJr0tu38mBbnm2SPOuz-1" target="REJr0tu38mBbnm2SPOuz-44" edge="1">
          <mxGeometry relative="1" as="geometry" />
        </mxCell>
        <mxCell id="REJr0tu38mBbnm2SPOuz-1" value="HomePage" style="rounded=1;whiteSpace=wrap;html=1;fillColor=#e1d5e7;strokeColor=#9673a6;fontSize=16;fontStyle=0" parent="1" vertex="1">
          <mxGeometry x="350" y="80" width="120" height="60" as="geometry" />
        </mxCell>
        <mxCell id="REJr0tu38mBbnm2SPOuz-42" style="edgeStyle=orthogonalEdgeStyle;rounded=0;orthogonalLoop=1;jettySize=auto;html=1;exitX=0.5;exitY=1;exitDx=0;exitDy=0;entryX=0.5;entryY=0;entryDx=0;entryDy=0;" parent="1" source="REJr0tu38mBbnm2SPOuz-2" target="REJr0tu38mBbnm2SPOuz-1" edge="1">
          <mxGeometry relative="1" as="geometry" />
        </mxCell>
        <mxCell id="REJr0tu38mBbnm2SPOuz-2" value="MyApp" style="rounded=1;whiteSpace=wrap;html=1;fillColor=#e1d5e7;strokeColor=#9673a6;fontSize=16;fontStyle=0" parent="1" vertex="1">
          <mxGeometry x="350" y="-20" width="120" height="60" as="geometry" />
        </mxCell>
        <mxCell id="REJr0tu38mBbnm2SPOuz-15" style="edgeStyle=orthogonalEdgeStyle;rounded=0;orthogonalLoop=1;jettySize=auto;html=1;exitX=0.25;exitY=1;exitDx=0;exitDy=0;entryX=0.5;entryY=0;entryDx=0;entryDy=0;" parent="1" source="REJr0tu38mBbnm2SPOuz-3" target="REJr0tu38mBbnm2SPOuz-4" edge="1">
          <mxGeometry relative="1" as="geometry" />
        </mxCell>
        <mxCell id="REJr0tu38mBbnm2SPOuz-16" style="edgeStyle=orthogonalEdgeStyle;rounded=0;orthogonalLoop=1;jettySize=auto;html=1;exitX=0.5;exitY=1;exitDx=0;exitDy=0;entryX=0.5;entryY=0;entryDx=0;entryDy=0;" parent="1" source="REJr0tu38mBbnm2SPOuz-3" target="REJr0tu38mBbnm2SPOuz-9" edge="1">
          <mxGeometry relative="1" as="geometry" />
        </mxCell>
        <mxCell id="REJr0tu38mBbnm2SPOuz-17" style="edgeStyle=orthogonalEdgeStyle;rounded=0;orthogonalLoop=1;jettySize=auto;html=1;exitX=0.75;exitY=1;exitDx=0;exitDy=0;entryX=0.5;entryY=0;entryDx=0;entryDy=0;" parent="1" source="REJr0tu38mBbnm2SPOuz-3" target="REJr0tu38mBbnm2SPOuz-12" edge="1">
          <mxGeometry relative="1" as="geometry" />
        </mxCell>
        <mxCell id="REJr0tu38mBbnm2SPOuz-3" value="MealsPage" style="rounded=1;whiteSpace=wrap;html=1;fillColor=#d5e8d4;strokeColor=#82b366;fontSize=16;fontStyle=0" parent="1" vertex="1">
          <mxGeometry x="-240" y="180" width="120" height="60" as="geometry" />
        </mxCell>
        <mxCell id="REJr0tu38mBbnm2SPOuz-18" style="edgeStyle=orthogonalEdgeStyle;rounded=0;orthogonalLoop=1;jettySize=auto;html=1;exitX=0.5;exitY=1;exitDx=0;exitDy=0;entryX=0.5;entryY=0;entryDx=0;entryDy=0;" parent="1" source="REJr0tu38mBbnm2SPOuz-4" target="REJr0tu38mBbnm2SPOuz-6" edge="1">
          <mxGeometry relative="1" as="geometry" />
        </mxCell>
        <mxCell id="REJr0tu38mBbnm2SPOuz-19" style="edgeStyle=orthogonalEdgeStyle;rounded=0;orthogonalLoop=1;jettySize=auto;html=1;exitX=0.25;exitY=1;exitDx=0;exitDy=0;entryX=0.5;entryY=0;entryDx=0;entryDy=0;" parent="1" source="REJr0tu38mBbnm2SPOuz-4" target="REJr0tu38mBbnm2SPOuz-5" edge="1">
          <mxGeometry relative="1" as="geometry" />
        </mxCell>
        <mxCell id="REJr0tu38mBbnm2SPOuz-20" style="edgeStyle=orthogonalEdgeStyle;rounded=0;orthogonalLoop=1;jettySize=auto;html=1;exitX=0.75;exitY=1;exitDx=0;exitDy=0;entryX=0.5;entryY=0;entryDx=0;entryDy=0;" parent="1" source="REJr0tu38mBbnm2SPOuz-4" target="REJr0tu38mBbnm2SPOuz-10" edge="1">
          <mxGeometry relative="1" as="geometry" />
        </mxCell>
        <mxCell id="REJr0tu38mBbnm2SPOuz-4" value="MealBox" style="rounded=1;whiteSpace=wrap;html=1;fillColor=#f8cecc;strokeColor=#b85450;fontSize=16;fontStyle=0" parent="1" vertex="1">
          <mxGeometry x="-490" y="360" width="120" height="60" as="geometry" />
        </mxCell>
        <mxCell id="REJr0tu38mBbnm2SPOuz-24" style="edgeStyle=orthogonalEdgeStyle;rounded=0;orthogonalLoop=1;jettySize=auto;html=1;exitX=0.5;exitY=1;exitDx=0;exitDy=0;entryX=0;entryY=0.5;entryDx=0;entryDy=0;" parent="1" source="REJr0tu38mBbnm2SPOuz-5" target="REJr0tu38mBbnm2SPOuz-11" edge="1">
          <mxGeometry relative="1" as="geometry" />
        </mxCell>
        <mxCell id="REJr0tu38mBbnm2SPOuz-55" style="edgeStyle=orthogonalEdgeStyle;rounded=0;orthogonalLoop=1;jettySize=auto;html=1;exitX=0.75;exitY=1;exitDx=0;exitDy=0;entryX=0.25;entryY=0;entryDx=0;entryDy=0;" parent="1" source="REJr0tu38mBbnm2SPOuz-5" target="REJr0tu38mBbnm2SPOuz-54" edge="1">
          <mxGeometry relative="1" as="geometry">
            <Array as="points">
              <mxPoint x="-570" y="580" />
              <mxPoint x="972" y="580" />
            </Array>
          </mxGeometry>
        </mxCell>
        <mxCell id="REJr0tu38mBbnm2SPOuz-5" value="AddFoodMenu" style="rounded=1;whiteSpace=wrap;html=1;fillColor=#d5e8d4;strokeColor=#82b366;fontSize=16;fontStyle=0" parent="1" vertex="1">
          <mxGeometry x="-660" y="490" width="120" height="60" as="geometry" />
        </mxCell>
        <mxCell id="REJr0tu38mBbnm2SPOuz-21" style="edgeStyle=orthogonalEdgeStyle;rounded=0;orthogonalLoop=1;jettySize=auto;html=1;exitX=0.25;exitY=1;exitDx=0;exitDy=0;entryX=0.5;entryY=0;entryDx=0;entryDy=0;" parent="1" source="REJr0tu38mBbnm2SPOuz-6" target="REJr0tu38mBbnm2SPOuz-7" edge="1">
          <mxGeometry relative="1" as="geometry" />
        </mxCell>
        <mxCell id="REJr0tu38mBbnm2SPOuz-23" style="edgeStyle=orthogonalEdgeStyle;rounded=0;orthogonalLoop=1;jettySize=auto;html=1;exitX=0.75;exitY=1;exitDx=0;exitDy=0;entryX=0.25;entryY=0;entryDx=0;entryDy=0;" parent="1" source="REJr0tu38mBbnm2SPOuz-6" target="REJr0tu38mBbnm2SPOuz-11" edge="1">
          <mxGeometry relative="1" as="geometry" />
        </mxCell>
        <mxCell id="REJr0tu38mBbnm2SPOuz-6" value="EditMealMenu" style="rounded=1;whiteSpace=wrap;html=1;fillColor=#d5e8d4;strokeColor=#82b366;fontSize=16;fontStyle=0" parent="1" vertex="1">
          <mxGeometry x="-490" y="490" width="120" height="60" as="geometry" />
        </mxCell>
        <mxCell id="REJr0tu38mBbnm2SPOuz-22" style="edgeStyle=orthogonalEdgeStyle;rounded=0;orthogonalLoop=1;jettySize=auto;html=1;exitX=0.5;exitY=1;exitDx=0;exitDy=0;entryX=0.5;entryY=0;entryDx=0;entryDy=0;" parent="1" source="REJr0tu38mBbnm2SPOuz-7" target="REJr0tu38mBbnm2SPOuz-8" edge="1">
          <mxGeometry relative="1" as="geometry" />
        </mxCell>
        <mxCell id="REJr0tu38mBbnm2SPOuz-7" value="RemoveMealPopUp" style="rounded=1;whiteSpace=wrap;html=1;fillColor=#f8cecc;strokeColor=#b85450;fontSize=16;fontStyle=0" parent="1" vertex="1">
          <mxGeometry x="-580" y="635" width="170" height="60" as="geometry" />
        </mxCell>
        <mxCell id="REJr0tu38mBbnm2SPOuz-8" value="TypeOfMealDeletion" style="rounded=1;whiteSpace=wrap;html=1;fillColor=#f8cecc;strokeColor=#b85450;fontSize=16;fontStyle=0" parent="1" vertex="1">
          <mxGeometry x="-580" y="745" width="170" height="60" as="geometry" />
        </mxCell>
        <mxCell id="REJr0tu38mBbnm2SPOuz-9" value="AddNewMealMenu" style="rounded=1;whiteSpace=wrap;html=1;fillColor=#d5e8d4;strokeColor=#82b366;fontSize=16;fontStyle=0" parent="1" vertex="1">
          <mxGeometry x="-265" y="360" width="170" height="60" as="geometry" />
        </mxCell>
        <mxCell id="REJr0tu38mBbnm2SPOuz-25" style="edgeStyle=orthogonalEdgeStyle;rounded=0;orthogonalLoop=1;jettySize=auto;html=1;exitX=0.5;exitY=1;exitDx=0;exitDy=0;entryX=0.5;entryY=0;entryDx=0;entryDy=0;" parent="1" source="REJr0tu38mBbnm2SPOuz-10" target="REJr0tu38mBbnm2SPOuz-11" edge="1">
          <mxGeometry relative="1" as="geometry" />
        </mxCell>
        <mxCell id="REJr0tu38mBbnm2SPOuz-10" value="FoodNutritionFacts" style="rounded=1;whiteSpace=wrap;html=1;fillColor=#f8cecc;strokeColor=#b85450;fontSize=16;fontStyle=0" parent="1" vertex="1">
          <mxGeometry x="-340" y="490" width="160" height="60" as="geometry" />
        </mxCell>
        <mxCell id="REJr0tu38mBbnm2SPOuz-11" value="MacroBreakdown" style="rounded=1;whiteSpace=wrap;html=1;fillColor=#f8cecc;strokeColor=#b85450;fontSize=16;fontStyle=0" parent="1" vertex="1">
          <mxGeometry x="-345" y="870" width="170" height="60" as="geometry" />
        </mxCell>
        <mxCell id="REJr0tu38mBbnm2SPOuz-26" style="edgeStyle=orthogonalEdgeStyle;rounded=0;orthogonalLoop=1;jettySize=auto;html=1;exitX=0.25;exitY=1;exitDx=0;exitDy=0;entryX=0.75;entryY=0;entryDx=0;entryDy=0;" parent="1" source="REJr0tu38mBbnm2SPOuz-12" target="REJr0tu38mBbnm2SPOuz-11" edge="1">
          <mxGeometry relative="1" as="geometry" />
        </mxCell>
        <mxCell id="REJr0tu38mBbnm2SPOuz-37" style="edgeStyle=orthogonalEdgeStyle;rounded=0;orthogonalLoop=1;jettySize=auto;html=1;exitX=0.75;exitY=1;exitDx=0;exitDy=0;entryX=0.5;entryY=0;entryDx=0;entryDy=0;" parent="1" source="REJr0tu38mBbnm2SPOuz-12" target="REJr0tu38mBbnm2SPOuz-36" edge="1">
          <mxGeometry relative="1" as="geometry" />
        </mxCell>
        <mxCell id="REJr0tu38mBbnm2SPOuz-12" value="DailyNutritionMenu" style="rounded=1;whiteSpace=wrap;html=1;fillColor=#d5e8d4;strokeColor=#82b366;fontSize=16;fontStyle=0" parent="1" vertex="1">
          <mxGeometry x="-30" y="360" width="160" height="60" as="geometry" />
        </mxCell>
        <mxCell id="REJr0tu38mBbnm2SPOuz-29" style="edgeStyle=orthogonalEdgeStyle;rounded=0;orthogonalLoop=1;jettySize=auto;html=1;exitX=0;exitY=1;exitDx=0;exitDy=0;entryX=0.75;entryY=0;entryDx=0;entryDy=0;" parent="1" source="REJr0tu38mBbnm2SPOuz-27" target="REJr0tu38mBbnm2SPOuz-12" edge="1">
          <mxGeometry relative="1" as="geometry">
            <Array as="points">
              <mxPoint x="350" y="260" />
              <mxPoint x="100" y="260" />
            </Array>
          </mxGeometry>
        </mxCell>
        <mxCell id="REJr0tu38mBbnm2SPOuz-34" style="edgeStyle=orthogonalEdgeStyle;rounded=0;orthogonalLoop=1;jettySize=auto;html=1;exitX=0.5;exitY=1;exitDx=0;exitDy=0;entryX=0.5;entryY=0;entryDx=0;entryDy=0;" parent="1" source="REJr0tu38mBbnm2SPOuz-27" target="REJr0tu38mBbnm2SPOuz-30" edge="1">
          <mxGeometry relative="1" as="geometry" />
        </mxCell>
        <mxCell id="REJr0tu38mBbnm2SPOuz-35" style="edgeStyle=orthogonalEdgeStyle;rounded=0;orthogonalLoop=1;jettySize=auto;html=1;exitX=0.75;exitY=1;exitDx=0;exitDy=0;entryX=0.5;entryY=0;entryDx=0;entryDy=0;" parent="1" source="REJr0tu38mBbnm2SPOuz-27" target="REJr0tu38mBbnm2SPOuz-31" edge="1">
          <mxGeometry relative="1" as="geometry" />
        </mxCell>
        <mxCell id="REJr0tu38mBbnm2SPOuz-58" style="edgeStyle=orthogonalEdgeStyle;rounded=0;orthogonalLoop=1;jettySize=auto;html=1;exitX=0.25;exitY=1;exitDx=0;exitDy=0;entryX=0.5;entryY=0;entryDx=0;entryDy=0;" parent="1" source="REJr0tu38mBbnm2SPOuz-27" target="REJr0tu38mBbnm2SPOuz-32" edge="1">
          <mxGeometry relative="1" as="geometry" />
        </mxCell>
        <mxCell id="REJr0tu38mBbnm2SPOuz-27" value="ProgressPage" style="rounded=1;whiteSpace=wrap;html=1;fillColor=#d5e8d4;strokeColor=#82b366;fontSize=16;fontStyle=0" parent="1" vertex="1">
          <mxGeometry x="350" y="180" width="120" height="60" as="geometry" />
        </mxCell>
        <mxCell id="REJr0tu38mBbnm2SPOuz-39" style="edgeStyle=orthogonalEdgeStyle;rounded=0;orthogonalLoop=1;jettySize=auto;html=1;exitX=0.25;exitY=1;exitDx=0;exitDy=0;entryX=0.5;entryY=0;entryDx=0;entryDy=0;" parent="1" source="REJr0tu38mBbnm2SPOuz-30" target="REJr0tu38mBbnm2SPOuz-38" edge="1">
          <mxGeometry relative="1" as="geometry" />
        </mxCell>
        <mxCell id="REJr0tu38mBbnm2SPOuz-41" style="edgeStyle=orthogonalEdgeStyle;rounded=0;orthogonalLoop=1;jettySize=auto;html=1;exitX=0.75;exitY=1;exitDx=0;exitDy=0;entryX=0.5;entryY=0;entryDx=0;entryDy=0;" parent="1" source="REJr0tu38mBbnm2SPOuz-30" target="REJr0tu38mBbnm2SPOuz-40" edge="1">
          <mxGeometry relative="1" as="geometry" />
        </mxCell>
        <mxCell id="REJr0tu38mBbnm2SPOuz-65" style="edgeStyle=orthogonalEdgeStyle;rounded=0;orthogonalLoop=1;jettySize=auto;html=1;exitX=0;exitY=0.5;exitDx=0;exitDy=0;entryX=1;entryY=0.5;entryDx=0;entryDy=0;" parent="1" source="REJr0tu38mBbnm2SPOuz-30" target="REJr0tu38mBbnm2SPOuz-32" edge="1">
          <mxGeometry relative="1" as="geometry" />
        </mxCell>
        <mxCell id="REJr0tu38mBbnm2SPOuz-30" value="WeightLogMenu" style="rounded=1;whiteSpace=wrap;html=1;fillColor=#d5e8d4;strokeColor=#82b366;fontSize=16;fontStyle=0" parent="1" vertex="1">
          <mxGeometry x="335" y="360" width="150" height="60" as="geometry" />
        </mxCell>
        <mxCell id="REJr0tu38mBbnm2SPOuz-31" value="WeightGraph" style="rounded=1;whiteSpace=wrap;html=1;fillColor=#f8cecc;strokeColor=#b85450;fontSize=16;fontStyle=0" parent="1" vertex="1">
          <mxGeometry x="545" y="360" width="120" height="60" as="geometry" />
        </mxCell>
        <mxCell id="REJr0tu38mBbnm2SPOuz-32" value="WeightWarning" style="rounded=1;whiteSpace=wrap;html=1;fillColor=#f8cecc;strokeColor=#b85450;fontSize=16;fontStyle=0" parent="1" vertex="1">
          <mxGeometry x="170" y="360" width="140" height="60" as="geometry" />
        </mxCell>
        <mxCell id="REJr0tu38mBbnm2SPOuz-62" style="edgeStyle=orthogonalEdgeStyle;rounded=0;orthogonalLoop=1;jettySize=auto;html=1;exitX=0.5;exitY=1;exitDx=0;exitDy=0;entryX=1;entryY=0.5;entryDx=0;entryDy=0;" parent="1" source="REJr0tu38mBbnm2SPOuz-36" target="REJr0tu38mBbnm2SPOuz-11" edge="1">
          <mxGeometry relative="1" as="geometry" />
        </mxCell>
        <mxCell id="REJr0tu38mBbnm2SPOuz-36" value="DailyNutritionFacts" style="rounded=1;whiteSpace=wrap;html=1;fillColor=#f8cecc;strokeColor=#b85450;fontSize=16;fontStyle=0" parent="1" vertex="1">
          <mxGeometry x="10" y="635" width="160" height="60" as="geometry" />
        </mxCell>
        <mxCell id="REJr0tu38mBbnm2SPOuz-38" value="EditWeightMenu" style="rounded=1;whiteSpace=wrap;html=1;fillColor=#d5e8d4;strokeColor=#82b366;fontSize=16;fontStyle=0" parent="1" vertex="1">
          <mxGeometry x="230" y="500" width="170" height="60" as="geometry" />
        </mxCell>
        <mxCell id="REJr0tu38mBbnm2SPOuz-40" value="LogNewWeightMenu" style="rounded=1;whiteSpace=wrap;html=1;fillColor=#d5e8d4;strokeColor=#82b366;fontSize=16;fontStyle=0" parent="1" vertex="1">
          <mxGeometry x="425" y="500" width="195" height="60" as="geometry" />
        </mxCell>
        <mxCell id="REJr0tu38mBbnm2SPOuz-47" style="edgeStyle=orthogonalEdgeStyle;rounded=0;orthogonalLoop=1;jettySize=auto;html=1;exitX=0.25;exitY=1;exitDx=0;exitDy=0;entryX=0.5;entryY=0;entryDx=0;entryDy=0;" parent="1" source="REJr0tu38mBbnm2SPOuz-44" target="REJr0tu38mBbnm2SPOuz-46" edge="1">
          <mxGeometry relative="1" as="geometry" />
        </mxCell>
        <mxCell id="REJr0tu38mBbnm2SPOuz-49" style="edgeStyle=orthogonalEdgeStyle;rounded=0;orthogonalLoop=1;jettySize=auto;html=1;exitX=0.5;exitY=1;exitDx=0;exitDy=0;entryX=0.5;entryY=0;entryDx=0;entryDy=0;" parent="1" source="REJr0tu38mBbnm2SPOuz-44" target="REJr0tu38mBbnm2SPOuz-48" edge="1">
          <mxGeometry relative="1" as="geometry" />
        </mxCell>
        <mxCell id="REJr0tu38mBbnm2SPOuz-51" style="edgeStyle=orthogonalEdgeStyle;rounded=0;orthogonalLoop=1;jettySize=auto;html=1;exitX=0.75;exitY=1;exitDx=0;exitDy=0;entryX=0.5;entryY=0;entryDx=0;entryDy=0;" parent="1" source="REJr0tu38mBbnm2SPOuz-44" target="REJr0tu38mBbnm2SPOuz-50" edge="1">
          <mxGeometry relative="1" as="geometry" />
        </mxCell>
        <mxCell id="REJr0tu38mBbnm2SPOuz-66" style="edgeStyle=orthogonalEdgeStyle;rounded=0;orthogonalLoop=1;jettySize=auto;html=1;exitX=0;exitY=1;exitDx=0;exitDy=0;entryX=0.75;entryY=0;entryDx=0;entryDy=0;" parent="1" source="REJr0tu38mBbnm2SPOuz-44" target="REJr0tu38mBbnm2SPOuz-30" edge="1">
          <mxGeometry relative="1" as="geometry">
            <Array as="points">
              <mxPoint x="940" y="280" />
              <mxPoint x="447" y="280" />
            </Array>
          </mxGeometry>
        </mxCell>
        <mxCell id="REJr0tu38mBbnm2SPOuz-44" value="SettingsMenu" style="rounded=1;whiteSpace=wrap;html=1;fillColor=#d5e8d4;strokeColor=#82b366;fontSize=16;fontStyle=0" parent="1" vertex="1">
          <mxGeometry x="940" y="180" width="120" height="60" as="geometry" />
        </mxCell>
        <mxCell id="REJr0tu38mBbnm2SPOuz-46" value="CaloriesAndMacrosGoalMenu" style="rounded=1;whiteSpace=wrap;html=1;fillColor=#d5e8d4;strokeColor=#82b366;fontSize=16;fontStyle=0" parent="1" vertex="1">
          <mxGeometry x="680" y="360" width="230" height="60" as="geometry" />
        </mxCell>
        <mxCell id="REJr0tu38mBbnm2SPOuz-48" value="DefaultMealsMenu" style="rounded=1;whiteSpace=wrap;html=1;fillColor=#d5e8d4;strokeColor=#82b366;fontSize=16;fontStyle=0" parent="1" vertex="1">
          <mxGeometry x="925" y="360" width="150" height="60" as="geometry" />
        </mxCell>
        <mxCell id="REJr0tu38mBbnm2SPOuz-56" style="edgeStyle=orthogonalEdgeStyle;rounded=0;orthogonalLoop=1;jettySize=auto;html=1;exitX=0.5;exitY=1;exitDx=0;exitDy=0;entryX=0.5;entryY=0;entryDx=0;entryDy=0;" parent="1" source="REJr0tu38mBbnm2SPOuz-50" target="REJr0tu38mBbnm2SPOuz-54" edge="1">
          <mxGeometry relative="1" as="geometry" />
        </mxCell>
        <mxCell id="REJr0tu38mBbnm2SPOuz-50" value="SavedFoodsMenu" style="rounded=1;whiteSpace=wrap;html=1;fillColor=#d5e8d4;strokeColor=#82b366;fontSize=16;fontStyle=0" parent="1" vertex="1">
          <mxGeometry x="1090" y="360" width="160" height="60" as="geometry" />
        </mxCell>
        <mxCell id="REJr0tu38mBbnm2SPOuz-54" value="CreateNewFoodMenu" style="rounded=1;whiteSpace=wrap;html=1;fillColor=#d5e8d4;strokeColor=#82b366;fontSize=16;fontStyle=0" parent="1" vertex="1">
          <mxGeometry x="925" y="635" width="190" height="60" as="geometry" />
        </mxCell>
        <mxCell id="REJr0tu38mBbnm2SPOuz-72" value="&lt;font style=&quot;font-size: 16px;&quot;&gt;Mainly Backend&lt;/font&gt;" style="rounded=1;whiteSpace=wrap;html=1;fillColor=#e1d5e7;strokeColor=#9673a6;" parent="1" vertex="1">
          <mxGeometry x="-440" y="-40" width="170" height="60" as="geometry" />
        </mxCell>
        <mxCell id="REJr0tu38mBbnm2SPOuz-73" value="&lt;span style=&quot;font-size: 16px;&quot;&gt;Element of Menus&lt;/span&gt;" style="rounded=1;whiteSpace=wrap;html=1;fillColor=#f8cecc;strokeColor=#b85450;" parent="1" vertex="1">
          <mxGeometry x="-440" y="20" width="170" height="60" as="geometry" />
        </mxCell>
        <mxCell id="REJr0tu38mBbnm2SPOuz-74" value="&lt;font style=&quot;font-size: 16px;&quot;&gt;Menus&lt;/font&gt;" style="rounded=1;whiteSpace=wrap;html=1;fillColor=#d5e8d4;strokeColor=#82b366;" parent="1" vertex="1">
          <mxGeometry x="-440" y="80" width="170" height="60" as="geometry" />
        </mxCell>
        <mxCell id="REJr0tu38mBbnm2SPOuz-81" value="&lt;span style=&quot;font-size: 16px;&quot;&gt;Food&lt;/span&gt;" style="rounded=1;whiteSpace=wrap;html=1;fillColor=#f5f5f5;strokeColor=#666666;fontColor=#333333;" parent="1" vertex="1">
          <mxGeometry x="-290" y="1500" width="170" height="60" as="geometry" />
        </mxCell>
        <mxCell id="REJr0tu38mBbnm2SPOuz-90" style="edgeStyle=orthogonalEdgeStyle;rounded=0;orthogonalLoop=1;jettySize=auto;html=1;exitX=0.25;exitY=1;exitDx=0;exitDy=0;entryX=0.5;entryY=0;entryDx=0;entryDy=0;" parent="1" source="REJr0tu38mBbnm2SPOuz-82" target="REJr0tu38mBbnm2SPOuz-81" edge="1">
          <mxGeometry relative="1" as="geometry" />
        </mxCell>
        <mxCell id="REJr0tu38mBbnm2SPOuz-93" style="edgeStyle=orthogonalEdgeStyle;rounded=0;orthogonalLoop=1;jettySize=auto;html=1;exitX=0.5;exitY=1;exitDx=0;exitDy=0;entryX=1;entryY=0.5;entryDx=0;entryDy=0;" parent="1" source="REJr0tu38mBbnm2SPOuz-82" target="REJr0tu38mBbnm2SPOuz-91" edge="1">
          <mxGeometry relative="1" as="geometry" />
        </mxCell>
        <mxCell id="REJr0tu38mBbnm2SPOuz-94" style="edgeStyle=orthogonalEdgeStyle;rounded=0;orthogonalLoop=1;jettySize=auto;html=1;exitX=0.75;exitY=1;exitDx=0;exitDy=0;entryX=1;entryY=0.5;entryDx=0;entryDy=0;" parent="1" source="REJr0tu38mBbnm2SPOuz-82" target="REJr0tu38mBbnm2SPOuz-92" edge="1">
          <mxGeometry relative="1" as="geometry" />
        </mxCell>
        <mxCell id="REJr0tu38mBbnm2SPOuz-82" value="&lt;font style=&quot;font-size: 16px;&quot;&gt;Meal&lt;/font&gt;" style="rounded=1;whiteSpace=wrap;html=1;fillColor=#f5f5f5;strokeColor=#666666;fontColor=#333333;" parent="1" vertex="1">
          <mxGeometry x="-180" y="1390" width="170" height="60" as="geometry" />
        </mxCell>
        <mxCell id="REJr0tu38mBbnm2SPOuz-83" value="&lt;span style=&quot;font-size: 16px;&quot;&gt;CurrentPage&lt;/span&gt;" style="rounded=1;whiteSpace=wrap;html=1;fillColor=#f5f5f5;strokeColor=#666666;fontColor=#333333;" parent="1" vertex="1">
          <mxGeometry x="850" y="1160" width="170" height="60" as="geometry" />
        </mxCell>
        <mxCell id="REJr0tu38mBbnm2SPOuz-89" style="edgeStyle=orthogonalEdgeStyle;rounded=0;orthogonalLoop=1;jettySize=auto;html=1;exitX=0.25;exitY=1;exitDx=0;exitDy=0;entryX=0.5;entryY=0;entryDx=0;entryDy=0;" parent="1" source="REJr0tu38mBbnm2SPOuz-84" target="REJr0tu38mBbnm2SPOuz-82" edge="1">
          <mxGeometry relative="1" as="geometry" />
        </mxCell>
        <mxCell id="REJr0tu38mBbnm2SPOuz-123" style="edgeStyle=orthogonalEdgeStyle;rounded=0;orthogonalLoop=1;jettySize=auto;html=1;exitX=0.5;exitY=1;exitDx=0;exitDy=0;entryX=0.5;entryY=0;entryDx=0;entryDy=0;" parent="1" source="REJr0tu38mBbnm2SPOuz-84" target="REJr0tu38mBbnm2SPOuz-113" edge="1">
          <mxGeometry relative="1" as="geometry" />
        </mxCell>
        <mxCell id="REJr0tu38mBbnm2SPOuz-124" style="edgeStyle=orthogonalEdgeStyle;rounded=0;orthogonalLoop=1;jettySize=auto;html=1;exitX=0.75;exitY=1;exitDx=0;exitDy=0;entryX=0.5;entryY=0;entryDx=0;entryDy=0;" parent="1" source="REJr0tu38mBbnm2SPOuz-84" target="REJr0tu38mBbnm2SPOuz-120" edge="1">
          <mxGeometry relative="1" as="geometry" />
        </mxCell>
        <mxCell id="REJr0tu38mBbnm2SPOuz-84" value="&lt;font style=&quot;font-size: 16px;&quot;&gt;Day&lt;/font&gt;" style="rounded=1;whiteSpace=wrap;html=1;fillColor=#f5f5f5;strokeColor=#666666;fontColor=#333333;" parent="1" vertex="1">
          <mxGeometry x="100" y="1260" width="170" height="60" as="geometry" />
        </mxCell>
        <mxCell id="REJr0tu38mBbnm2SPOuz-86" value="&lt;span style=&quot;font-size: 16px;&quot;&gt;Weight&lt;/span&gt;" style="rounded=1;whiteSpace=wrap;html=1;fillColor=#f5f5f5;strokeColor=#666666;fontColor=#333333;" parent="1" vertex="1">
          <mxGeometry x="640" y="1390" width="170" height="60" as="geometry" />
        </mxCell>
        <mxCell id="REJr0tu38mBbnm2SPOuz-88" style="edgeStyle=orthogonalEdgeStyle;rounded=0;orthogonalLoop=1;jettySize=auto;html=1;exitX=0.5;exitY=1;exitDx=0;exitDy=0;entryX=0.5;entryY=0;entryDx=0;entryDy=0;" parent="1" source="REJr0tu38mBbnm2SPOuz-87" target="REJr0tu38mBbnm2SPOuz-86" edge="1">
          <mxGeometry relative="1" as="geometry" />
        </mxCell>
        <mxCell id="REJr0tu38mBbnm2SPOuz-87" value="&lt;span style=&quot;font-size: 16px;&quot;&gt;List of Weights&lt;/span&gt;" style="rounded=1;whiteSpace=wrap;html=1;fillColor=#f5f5f5;strokeColor=#666666;fontColor=#333333;" parent="1" vertex="1">
          <mxGeometry x="640" y="1160" width="170" height="60" as="geometry" />
        </mxCell>
        <mxCell id="REJr0tu38mBbnm2SPOuz-91" value="&lt;span style=&quot;font-size: 16px;&quot;&gt;Food&lt;/span&gt;" style="rounded=1;whiteSpace=wrap;html=1;fillColor=#f5f5f5;strokeColor=#666666;fontColor=#333333;" parent="1" vertex="1">
          <mxGeometry x="-290" y="1570" width="170" height="60" as="geometry" />
        </mxCell>
        <mxCell id="REJr0tu38mBbnm2SPOuz-92" value="&lt;span style=&quot;font-size: 16px;&quot;&gt;Food&lt;/span&gt;" style="rounded=1;whiteSpace=wrap;html=1;fillColor=#f5f5f5;strokeColor=#666666;fontColor=#333333;" parent="1" vertex="1">
          <mxGeometry x="-290" y="1640" width="170" height="60" as="geometry" />
        </mxCell>
        <mxCell id="REJr0tu38mBbnm2SPOuz-109" value="&lt;span style=&quot;font-size: 16px;&quot;&gt;Food&lt;/span&gt;" style="rounded=1;whiteSpace=wrap;html=1;fillColor=#f5f5f5;strokeColor=#666666;fontColor=#333333;" parent="1" vertex="1">
          <mxGeometry x="-10" y="1500" width="170" height="60" as="geometry" />
        </mxCell>
        <mxCell id="REJr0tu38mBbnm2SPOuz-110" style="edgeStyle=orthogonalEdgeStyle;rounded=0;orthogonalLoop=1;jettySize=auto;html=1;exitX=0.25;exitY=1;exitDx=0;exitDy=0;entryX=0.5;entryY=0;entryDx=0;entryDy=0;" parent="1" source="REJr0tu38mBbnm2SPOuz-113" target="REJr0tu38mBbnm2SPOuz-109" edge="1">
          <mxGeometry relative="1" as="geometry" />
        </mxCell>
        <mxCell id="REJr0tu38mBbnm2SPOuz-111" style="edgeStyle=orthogonalEdgeStyle;rounded=0;orthogonalLoop=1;jettySize=auto;html=1;exitX=0.5;exitY=1;exitDx=0;exitDy=0;entryX=1;entryY=0.5;entryDx=0;entryDy=0;" parent="1" source="REJr0tu38mBbnm2SPOuz-113" target="REJr0tu38mBbnm2SPOuz-114" edge="1">
          <mxGeometry relative="1" as="geometry" />
        </mxCell>
        <mxCell id="REJr0tu38mBbnm2SPOuz-112" style="edgeStyle=orthogonalEdgeStyle;rounded=0;orthogonalLoop=1;jettySize=auto;html=1;exitX=0.75;exitY=1;exitDx=0;exitDy=0;entryX=1;entryY=0.5;entryDx=0;entryDy=0;" parent="1" source="REJr0tu38mBbnm2SPOuz-113" target="REJr0tu38mBbnm2SPOuz-115" edge="1">
          <mxGeometry relative="1" as="geometry" />
        </mxCell>
        <mxCell id="REJr0tu38mBbnm2SPOuz-113" value="&lt;font style=&quot;font-size: 16px;&quot;&gt;Meal&lt;/font&gt;" style="rounded=1;whiteSpace=wrap;html=1;fillColor=#f5f5f5;strokeColor=#666666;fontColor=#333333;" parent="1" vertex="1">
          <mxGeometry x="100" y="1390" width="170" height="60" as="geometry" />
        </mxCell>
        <mxCell id="REJr0tu38mBbnm2SPOuz-114" value="&lt;span style=&quot;font-size: 16px;&quot;&gt;Food&lt;/span&gt;" style="rounded=1;whiteSpace=wrap;html=1;fillColor=#f5f5f5;strokeColor=#666666;fontColor=#333333;" parent="1" vertex="1">
          <mxGeometry x="-10" y="1570" width="170" height="60" as="geometry" />
        </mxCell>
        <mxCell id="REJr0tu38mBbnm2SPOuz-115" value="&lt;span style=&quot;font-size: 16px;&quot;&gt;Food&lt;/span&gt;" style="rounded=1;whiteSpace=wrap;html=1;fillColor=#f5f5f5;strokeColor=#666666;fontColor=#333333;" parent="1" vertex="1">
          <mxGeometry x="-10" y="1640" width="170" height="60" as="geometry" />
        </mxCell>
        <mxCell id="REJr0tu38mBbnm2SPOuz-116" value="&lt;span style=&quot;font-size: 16px;&quot;&gt;Food&lt;/span&gt;" style="rounded=1;whiteSpace=wrap;html=1;fillColor=#f5f5f5;strokeColor=#666666;fontColor=#333333;" parent="1" vertex="1">
          <mxGeometry x="270" y="1500" width="170" height="60" as="geometry" />
        </mxCell>
        <mxCell id="REJr0tu38mBbnm2SPOuz-117" style="edgeStyle=orthogonalEdgeStyle;rounded=0;orthogonalLoop=1;jettySize=auto;html=1;exitX=0.25;exitY=1;exitDx=0;exitDy=0;entryX=0.5;entryY=0;entryDx=0;entryDy=0;" parent="1" source="REJr0tu38mBbnm2SPOuz-120" target="REJr0tu38mBbnm2SPOuz-116" edge="1">
          <mxGeometry relative="1" as="geometry" />
        </mxCell>
        <mxCell id="REJr0tu38mBbnm2SPOuz-118" style="edgeStyle=orthogonalEdgeStyle;rounded=0;orthogonalLoop=1;jettySize=auto;html=1;exitX=0.5;exitY=1;exitDx=0;exitDy=0;entryX=1;entryY=0.5;entryDx=0;entryDy=0;" parent="1" source="REJr0tu38mBbnm2SPOuz-120" target="REJr0tu38mBbnm2SPOuz-121" edge="1">
          <mxGeometry relative="1" as="geometry" />
        </mxCell>
        <mxCell id="REJr0tu38mBbnm2SPOuz-119" style="edgeStyle=orthogonalEdgeStyle;rounded=0;orthogonalLoop=1;jettySize=auto;html=1;exitX=0.75;exitY=1;exitDx=0;exitDy=0;entryX=1;entryY=0.5;entryDx=0;entryDy=0;" parent="1" source="REJr0tu38mBbnm2SPOuz-120" target="REJr0tu38mBbnm2SPOuz-122" edge="1">
          <mxGeometry relative="1" as="geometry" />
        </mxCell>
        <mxCell id="REJr0tu38mBbnm2SPOuz-120" value="&lt;font style=&quot;font-size: 16px;&quot;&gt;Meal&lt;/font&gt;" style="rounded=1;whiteSpace=wrap;html=1;fillColor=#f5f5f5;strokeColor=#666666;fontColor=#333333;" parent="1" vertex="1">
          <mxGeometry x="380" y="1390" width="170" height="60" as="geometry" />
        </mxCell>
        <mxCell id="REJr0tu38mBbnm2SPOuz-121" value="&lt;span style=&quot;font-size: 16px;&quot;&gt;Food&lt;/span&gt;" style="rounded=1;whiteSpace=wrap;html=1;fillColor=#f5f5f5;strokeColor=#666666;fontColor=#333333;" parent="1" vertex="1">
          <mxGeometry x="270" y="1570" width="170" height="60" as="geometry" />
        </mxCell>
        <mxCell id="REJr0tu38mBbnm2SPOuz-122" value="&lt;span style=&quot;font-size: 16px;&quot;&gt;Food&lt;/span&gt;" style="rounded=1;whiteSpace=wrap;html=1;fillColor=#f5f5f5;strokeColor=#666666;fontColor=#333333;" parent="1" vertex="1">
          <mxGeometry x="270" y="1640" width="170" height="60" as="geometry" />
        </mxCell>
        <mxCell id="REJr0tu38mBbnm2SPOuz-126" style="edgeStyle=orthogonalEdgeStyle;rounded=0;orthogonalLoop=1;jettySize=auto;html=1;exitX=0.5;exitY=1;exitDx=0;exitDy=0;entryX=0.5;entryY=0;entryDx=0;entryDy=0;" parent="1" source="REJr0tu38mBbnm2SPOuz-125" target="REJr0tu38mBbnm2SPOuz-84" edge="1">
          <mxGeometry relative="1" as="geometry" />
        </mxCell>
        <mxCell id="REJr0tu38mBbnm2SPOuz-129" style="edgeStyle=orthogonalEdgeStyle;rounded=0;orthogonalLoop=1;jettySize=auto;html=1;exitX=0.25;exitY=1;exitDx=0;exitDy=0;entryX=0.5;entryY=0;entryDx=0;entryDy=0;" parent="1" source="REJr0tu38mBbnm2SPOuz-125" target="REJr0tu38mBbnm2SPOuz-128" edge="1">
          <mxGeometry relative="1" as="geometry" />
        </mxCell>
        <mxCell id="REJr0tu38mBbnm2SPOuz-130" style="edgeStyle=orthogonalEdgeStyle;rounded=0;orthogonalLoop=1;jettySize=auto;html=1;exitX=0.75;exitY=1;exitDx=0;exitDy=0;entryX=0.5;entryY=0;entryDx=0;entryDy=0;" parent="1" source="REJr0tu38mBbnm2SPOuz-125" target="REJr0tu38mBbnm2SPOuz-127" edge="1">
          <mxGeometry relative="1" as="geometry" />
        </mxCell>
        <mxCell id="REJr0tu38mBbnm2SPOuz-125" value="&lt;font style=&quot;font-size: 16px;&quot;&gt;List Of Days&lt;/font&gt;" style="rounded=1;whiteSpace=wrap;html=1;fillColor=#f5f5f5;strokeColor=#666666;fontColor=#333333;" parent="1" vertex="1">
          <mxGeometry x="100" y="1160" width="170" height="60" as="geometry" />
        </mxCell>
        <mxCell id="REJr0tu38mBbnm2SPOuz-127" value="&lt;font style=&quot;font-size: 16px;&quot;&gt;Day&lt;/font&gt;" style="rounded=1;whiteSpace=wrap;html=1;fillColor=#f5f5f5;strokeColor=#666666;fontColor=#333333;" parent="1" vertex="1">
          <mxGeometry x="300" y="1260" width="170" height="60" as="geometry" />
        </mxCell>
        <mxCell id="mDDYVCjT5NGg4LR3tMuF-8" style="edgeStyle=orthogonalEdgeStyle;rounded=0;orthogonalLoop=1;jettySize=auto;html=1;exitX=0;exitY=0.5;exitDx=0;exitDy=0;entryX=1;entryY=0.5;entryDx=0;entryDy=0;" edge="1" parent="1" source="REJr0tu38mBbnm2SPOuz-128" target="mDDYVCjT5NGg4LR3tMuF-7">
          <mxGeometry relative="1" as="geometry" />
        </mxCell>
        <mxCell id="REJr0tu38mBbnm2SPOuz-128" value="&lt;font style=&quot;font-size: 16px;&quot;&gt;Day&lt;/font&gt;" style="rounded=1;whiteSpace=wrap;html=1;fillColor=#f5f5f5;strokeColor=#666666;fontColor=#333333;" parent="1" vertex="1">
          <mxGeometry x="-110" y="1260" width="170" height="60" as="geometry" />
        </mxCell>
        <mxCell id="REJr0tu38mBbnm2SPOuz-137" style="edgeStyle=orthogonalEdgeStyle;rounded=0;orthogonalLoop=1;jettySize=auto;html=1;exitX=0.5;exitY=1;exitDx=0;exitDy=0;entryX=0.5;entryY=0;entryDx=0;entryDy=0;" parent="1" source="REJr0tu38mBbnm2SPOuz-134" target="REJr0tu38mBbnm2SPOuz-135" edge="1">
          <mxGeometry relative="1" as="geometry" />
        </mxCell>
        <mxCell id="REJr0tu38mBbnm2SPOuz-134" value="&lt;font style=&quot;font-size: 16px;&quot;&gt;List of Days&lt;/font&gt;" style="rounded=1;whiteSpace=wrap;html=1;fillColor=#f5f5f5;strokeColor=#666666;fontColor=#333333;" parent="1" vertex="1">
          <mxGeometry x="-590" y="1160" width="170" height="60" as="geometry" />
        </mxCell>
        <mxCell id="REJr0tu38mBbnm2SPOuz-138" style="edgeStyle=orthogonalEdgeStyle;rounded=0;orthogonalLoop=1;jettySize=auto;html=1;exitX=0.5;exitY=1;exitDx=0;exitDy=0;entryX=0.5;entryY=0;entryDx=0;entryDy=0;" parent="1" source="REJr0tu38mBbnm2SPOuz-135" target="REJr0tu38mBbnm2SPOuz-136" edge="1">
          <mxGeometry relative="1" as="geometry" />
        </mxCell>
        <mxCell id="REJr0tu38mBbnm2SPOuz-135" value="&lt;font style=&quot;font-size: 16px;&quot;&gt;List of Meals&lt;/font&gt;" style="rounded=1;whiteSpace=wrap;html=1;fillColor=#f5f5f5;strokeColor=#666666;fontColor=#333333;" parent="1" vertex="1">
          <mxGeometry x="-590" y="1380" width="170" height="60" as="geometry" />
        </mxCell>
        <mxCell id="REJr0tu38mBbnm2SPOuz-136" value="&lt;font style=&quot;font-size: 16px;&quot;&gt;List of Foods&lt;/font&gt;" style="rounded=1;whiteSpace=wrap;html=1;fillColor=#f5f5f5;strokeColor=#666666;fontColor=#333333;" parent="1" vertex="1">
          <mxGeometry x="-590" y="1500" width="170" height="60" as="geometry" />
        </mxCell>
        <mxCell id="REJr0tu38mBbnm2SPOuz-142" value="Key" style="text;html=1;align=center;verticalAlign=middle;whiteSpace=wrap;rounded=0;fontSize=26;fontStyle=1" parent="1" vertex="1">
          <mxGeometry x="-430" y="-90" width="150" height="50" as="geometry" />
        </mxCell>
        <mxCell id="REJr0tu38mBbnm2SPOuz-143" value="WidgetStructure" style="text;html=1;align=center;verticalAlign=middle;whiteSpace=wrap;rounded=0;fontSize=26;fontStyle=1" parent="1" vertex="1">
          <mxGeometry x="265" y="-120" width="280" height="50" as="geometry" />
        </mxCell>
        <mxCell id="REJr0tu38mBbnm2SPOuz-144" value="Data Structure" style="text;html=1;align=center;verticalAlign=middle;whiteSpace=wrap;rounded=0;fontSize=26;fontStyle=1" parent="1" vertex="1">
          <mxGeometry x="205" y="1060" width="280" height="50" as="geometry" />
        </mxCell>
        <mxCell id="REJr0tu38mBbnm2SPOuz-149" value="HomePage" style="rounded=1;whiteSpace=wrap;html=1;fillColor=#e1d5e7;strokeColor=#9673a6;fontSize=16;fontStyle=0" parent="1" vertex="1">
          <mxGeometry x="3000" y="90" width="120" height="60" as="geometry" />
        </mxCell>
        <mxCell id="REJr0tu38mBbnm2SPOuz-151" value="MyApp" style="rounded=1;whiteSpace=wrap;html=1;fillColor=#e1d5e7;strokeColor=#9673a6;fontSize=16;fontStyle=0" parent="1" vertex="1">
          <mxGeometry x="3000" y="-10" width="120" height="60" as="geometry" />
        </mxCell>
        <mxCell id="REJr0tu38mBbnm2SPOuz-155" value="MealsPage" style="rounded=1;whiteSpace=wrap;html=1;fillColor=#d5e8d4;strokeColor=#82b366;fontSize=16;fontStyle=0" parent="1" vertex="1">
          <mxGeometry x="2410" y="190" width="120" height="60" as="geometry" />
        </mxCell>
        <mxCell id="REJr0tu38mBbnm2SPOuz-159" value="MealBox" style="rounded=1;whiteSpace=wrap;html=1;fillColor=#f8cecc;strokeColor=#b85450;fontSize=16;fontStyle=0" parent="1" vertex="1">
          <mxGeometry x="2160" y="370" width="120" height="60" as="geometry" />
        </mxCell>
        <mxCell id="REJr0tu38mBbnm2SPOuz-162" value="AddFoodMenu" style="rounded=1;whiteSpace=wrap;html=1;fillColor=#d5e8d4;strokeColor=#82b366;fontSize=16;fontStyle=0" parent="1" vertex="1">
          <mxGeometry x="1990" y="500" width="120" height="60" as="geometry" />
        </mxCell>
        <mxCell id="REJr0tu38mBbnm2SPOuz-236" style="edgeStyle=orthogonalEdgeStyle;rounded=0;orthogonalLoop=1;jettySize=auto;html=1;exitX=0.5;exitY=1;exitDx=0;exitDy=0;entryX=0.5;entryY=0;entryDx=0;entryDy=0;" parent="1" source="REJr0tu38mBbnm2SPOuz-165" target="REJr0tu38mBbnm2SPOuz-207" edge="1">
          <mxGeometry relative="1" as="geometry" />
        </mxCell>
        <mxCell id="REJr0tu38mBbnm2SPOuz-165" value="EditMealMenu" style="rounded=1;whiteSpace=wrap;html=1;fillColor=#d5e8d4;strokeColor=#82b366;fontSize=16;fontStyle=0" parent="1" vertex="1">
          <mxGeometry x="2160" y="500" width="120" height="60" as="geometry" />
        </mxCell>
        <mxCell id="REJr0tu38mBbnm2SPOuz-167" value="RemoveMealPopUp" style="rounded=1;whiteSpace=wrap;html=1;fillColor=#f8cecc;strokeColor=#b85450;fontSize=16;fontStyle=0" parent="1" vertex="1">
          <mxGeometry x="2070" y="645" width="170" height="60" as="geometry" />
        </mxCell>
        <mxCell id="REJr0tu38mBbnm2SPOuz-241" style="edgeStyle=orthogonalEdgeStyle;rounded=0;orthogonalLoop=1;jettySize=auto;html=1;exitX=0.25;exitY=1;exitDx=0;exitDy=0;entryX=0;entryY=0.5;entryDx=0;entryDy=0;" parent="1" source="REJr0tu38mBbnm2SPOuz-168" target="REJr0tu38mBbnm2SPOuz-240" edge="1">
          <mxGeometry relative="1" as="geometry" />
        </mxCell>
        <mxCell id="REJr0tu38mBbnm2SPOuz-261" style="edgeStyle=orthogonalEdgeStyle;rounded=0;orthogonalLoop=1;jettySize=auto;html=1;exitX=0.5;exitY=1;exitDx=0;exitDy=0;entryX=0.75;entryY=0;entryDx=0;entryDy=0;" parent="1" source="REJr0tu38mBbnm2SPOuz-168" target="REJr0tu38mBbnm2SPOuz-221" edge="1">
          <mxGeometry relative="1" as="geometry" />
        </mxCell>
        <mxCell id="REJr0tu38mBbnm2SPOuz-168" value="TypeOfMealDeletion" style="rounded=1;whiteSpace=wrap;html=1;fillColor=#f8cecc;strokeColor=#b85450;fontSize=16;fontStyle=0" parent="1" vertex="1">
          <mxGeometry x="2070" y="755" width="170" height="60" as="geometry" />
        </mxCell>
        <mxCell id="REJr0tu38mBbnm2SPOuz-232" style="edgeStyle=orthogonalEdgeStyle;rounded=0;orthogonalLoop=1;jettySize=auto;html=1;exitX=0.75;exitY=1;exitDx=0;exitDy=0;entryX=0.25;entryY=0;entryDx=0;entryDy=0;" parent="1" source="REJr0tu38mBbnm2SPOuz-169" target="REJr0tu38mBbnm2SPOuz-221" edge="1">
          <mxGeometry relative="1" as="geometry" />
        </mxCell>
        <mxCell id="REJr0tu38mBbnm2SPOuz-169" value="AddNewMealMenu" style="rounded=1;whiteSpace=wrap;html=1;fillColor=#d5e8d4;strokeColor=#82b366;fontSize=16;fontStyle=0" parent="1" vertex="1">
          <mxGeometry x="2385" y="370" width="170" height="60" as="geometry" />
        </mxCell>
        <mxCell id="REJr0tu38mBbnm2SPOuz-235" style="edgeStyle=orthogonalEdgeStyle;rounded=0;orthogonalLoop=1;jettySize=auto;html=1;exitX=0.5;exitY=1;exitDx=0;exitDy=0;entryX=0.5;entryY=0;entryDx=0;entryDy=0;" parent="1" source="REJr0tu38mBbnm2SPOuz-171" target="REJr0tu38mBbnm2SPOuz-208" edge="1">
          <mxGeometry relative="1" as="geometry">
            <Array as="points">
              <mxPoint x="2390" y="810" />
              <mxPoint x="3995" y="810" />
            </Array>
          </mxGeometry>
        </mxCell>
        <mxCell id="REJr0tu38mBbnm2SPOuz-171" value="FoodNutritionFacts" style="rounded=1;whiteSpace=wrap;html=1;fillColor=#f8cecc;strokeColor=#b85450;fontSize=16;fontStyle=0" parent="1" vertex="1">
          <mxGeometry x="2310" y="500" width="160" height="60" as="geometry" />
        </mxCell>
        <mxCell id="REJr0tu38mBbnm2SPOuz-172" value="MacroBreakdown" style="rounded=1;whiteSpace=wrap;html=1;fillColor=#f8cecc;strokeColor=#b85450;fontSize=16;fontStyle=0" parent="1" vertex="1">
          <mxGeometry x="2305" y="880" width="170" height="60" as="geometry" />
        </mxCell>
        <mxCell id="REJr0tu38mBbnm2SPOuz-175" value="DailyNutritionMenu" style="rounded=1;whiteSpace=wrap;html=1;fillColor=#d5e8d4;strokeColor=#82b366;fontSize=16;fontStyle=0" parent="1" vertex="1">
          <mxGeometry x="2620" y="370" width="160" height="60" as="geometry" />
        </mxCell>
        <mxCell id="REJr0tu38mBbnm2SPOuz-180" value="ProgressPage" style="rounded=1;whiteSpace=wrap;html=1;fillColor=#d5e8d4;strokeColor=#82b366;fontSize=16;fontStyle=0" parent="1" vertex="1">
          <mxGeometry x="3000" y="190" width="120" height="60" as="geometry" />
        </mxCell>
        <mxCell id="REJr0tu38mBbnm2SPOuz-184" value="WeightLogMenu" style="rounded=1;whiteSpace=wrap;html=1;fillColor=#d5e8d4;strokeColor=#82b366;fontSize=16;fontStyle=0" parent="1" vertex="1">
          <mxGeometry x="2985" y="370" width="150" height="60" as="geometry" />
        </mxCell>
        <mxCell id="REJr0tu38mBbnm2SPOuz-185" value="WeightGraph" style="rounded=1;whiteSpace=wrap;html=1;fillColor=#f8cecc;strokeColor=#b85450;fontSize=16;fontStyle=0" parent="1" vertex="1">
          <mxGeometry x="3195" y="370" width="120" height="60" as="geometry" />
        </mxCell>
        <mxCell id="REJr0tu38mBbnm2SPOuz-186" value="WeightWarning" style="rounded=1;whiteSpace=wrap;html=1;fillColor=#f8cecc;strokeColor=#b85450;fontSize=16;fontStyle=0" parent="1" vertex="1">
          <mxGeometry x="2820" y="370" width="140" height="60" as="geometry" />
        </mxCell>
        <mxCell id="REJr0tu38mBbnm2SPOuz-188" value="DailyNutritionFacts" style="rounded=1;whiteSpace=wrap;html=1;fillColor=#f8cecc;strokeColor=#b85450;fontSize=16;fontStyle=0" parent="1" vertex="1">
          <mxGeometry x="2660" y="645" width="160" height="60" as="geometry" />
        </mxCell>
        <mxCell id="REJr0tu38mBbnm2SPOuz-189" value="EditWeightMenu" style="rounded=1;whiteSpace=wrap;html=1;fillColor=#d5e8d4;strokeColor=#82b366;fontSize=16;fontStyle=0" parent="1" vertex="1">
          <mxGeometry x="2880" y="510" width="170" height="60" as="geometry" />
        </mxCell>
        <mxCell id="REJr0tu38mBbnm2SPOuz-272" style="edgeStyle=orthogonalEdgeStyle;rounded=0;orthogonalLoop=1;jettySize=auto;html=1;exitX=0.5;exitY=1;exitDx=0;exitDy=0;entryX=0;entryY=0.5;entryDx=0;entryDy=0;" parent="1" source="REJr0tu38mBbnm2SPOuz-190" target="REJr0tu38mBbnm2SPOuz-271" edge="1">
          <mxGeometry relative="1" as="geometry" />
        </mxCell>
        <mxCell id="REJr0tu38mBbnm2SPOuz-190" value="LogNewWeightMenu" style="rounded=1;whiteSpace=wrap;html=1;fillColor=#d5e8d4;strokeColor=#82b366;fontSize=16;fontStyle=0" parent="1" vertex="1">
          <mxGeometry x="3075" y="510" width="195" height="60" as="geometry" />
        </mxCell>
        <mxCell id="REJr0tu38mBbnm2SPOuz-195" value="SettingsMenu" style="rounded=1;whiteSpace=wrap;html=1;fillColor=#d5e8d4;strokeColor=#82b366;fontSize=16;fontStyle=0" parent="1" vertex="1">
          <mxGeometry x="3590" y="190" width="120" height="60" as="geometry" />
        </mxCell>
        <mxCell id="REJr0tu38mBbnm2SPOuz-252" style="edgeStyle=orthogonalEdgeStyle;rounded=0;orthogonalLoop=1;jettySize=auto;html=1;exitX=0.25;exitY=1;exitDx=0;exitDy=0;entryX=0.5;entryY=0;entryDx=0;entryDy=0;" parent="1" source="REJr0tu38mBbnm2SPOuz-196" target="REJr0tu38mBbnm2SPOuz-239" edge="1">
          <mxGeometry relative="1" as="geometry" />
        </mxCell>
        <mxCell id="REJr0tu38mBbnm2SPOuz-196" value="CaloriesAndMacrosGoalMenu" style="rounded=1;whiteSpace=wrap;html=1;fillColor=#d5e8d4;strokeColor=#82b366;fontSize=16;fontStyle=0" parent="1" vertex="1">
          <mxGeometry x="3330" y="370" width="230" height="60" as="geometry" />
        </mxCell>
        <mxCell id="REJr0tu38mBbnm2SPOuz-245" style="edgeStyle=orthogonalEdgeStyle;rounded=0;orthogonalLoop=1;jettySize=auto;html=1;exitX=0.25;exitY=1;exitDx=0;exitDy=0;entryX=0.5;entryY=0;entryDx=0;entryDy=0;" parent="1" source="REJr0tu38mBbnm2SPOuz-197" target="REJr0tu38mBbnm2SPOuz-240" edge="1">
          <mxGeometry relative="1" as="geometry" />
        </mxCell>
        <mxCell id="REJr0tu38mBbnm2SPOuz-197" value="DefaultMealsMenu" style="rounded=1;whiteSpace=wrap;html=1;fillColor=#d5e8d4;strokeColor=#82b366;fontSize=16;fontStyle=0" parent="1" vertex="1">
          <mxGeometry x="3575" y="370" width="150" height="60" as="geometry" />
        </mxCell>
        <mxCell id="REJr0tu38mBbnm2SPOuz-250" style="edgeStyle=orthogonalEdgeStyle;rounded=0;orthogonalLoop=1;jettySize=auto;html=1;exitX=0.75;exitY=1;exitDx=0;exitDy=0;entryX=1;entryY=0.75;entryDx=0;entryDy=0;" parent="1" source="REJr0tu38mBbnm2SPOuz-199" target="REJr0tu38mBbnm2SPOuz-238" edge="1">
          <mxGeometry relative="1" as="geometry" />
        </mxCell>
        <mxCell id="REJr0tu38mBbnm2SPOuz-199" value="SavedFoodsMenu" style="rounded=1;whiteSpace=wrap;html=1;fillColor=#d5e8d4;strokeColor=#82b366;fontSize=16;fontStyle=0" parent="1" vertex="1">
          <mxGeometry x="3740" y="370" width="160" height="60" as="geometry" />
        </mxCell>
        <mxCell id="REJr0tu38mBbnm2SPOuz-247" style="edgeStyle=orthogonalEdgeStyle;rounded=0;orthogonalLoop=1;jettySize=auto;html=1;exitX=0.5;exitY=1;exitDx=0;exitDy=0;entryX=0.75;entryY=0;entryDx=0;entryDy=0;" parent="1" source="REJr0tu38mBbnm2SPOuz-200" target="REJr0tu38mBbnm2SPOuz-238" edge="1">
          <mxGeometry relative="1" as="geometry" />
        </mxCell>
        <mxCell id="REJr0tu38mBbnm2SPOuz-200" value="CreateNewFoodMenu" style="rounded=1;whiteSpace=wrap;html=1;fillColor=#d5e8d4;strokeColor=#82b366;fontSize=16;fontStyle=0" parent="1" vertex="1">
          <mxGeometry x="3575" y="645" width="190" height="60" as="geometry" />
        </mxCell>
        <mxCell id="REJr0tu38mBbnm2SPOuz-205" value="Widgets&amp;nbsp; With Data" style="text;html=1;align=center;verticalAlign=middle;whiteSpace=wrap;rounded=0;fontSize=26;fontStyle=1" parent="1" vertex="1">
          <mxGeometry x="2915" y="-110" width="280" height="50" as="geometry" />
        </mxCell>
        <mxCell id="REJr0tu38mBbnm2SPOuz-222" style="edgeStyle=orthogonalEdgeStyle;rounded=0;orthogonalLoop=1;jettySize=auto;html=1;exitX=1;exitY=0.5;exitDx=0;exitDy=0;entryX=0;entryY=0.5;entryDx=0;entryDy=0;" parent="1" source="REJr0tu38mBbnm2SPOuz-206" target="REJr0tu38mBbnm2SPOuz-221" edge="1">
          <mxGeometry relative="1" as="geometry" />
        </mxCell>
        <mxCell id="REJr0tu38mBbnm2SPOuz-233" style="edgeStyle=orthogonalEdgeStyle;rounded=0;orthogonalLoop=1;jettySize=auto;html=1;exitX=0.5;exitY=0;exitDx=0;exitDy=0;entryX=0.5;entryY=1;entryDx=0;entryDy=0;" parent="1" source="REJr0tu38mBbnm2SPOuz-206" target="REJr0tu38mBbnm2SPOuz-175" edge="1">
          <mxGeometry relative="1" as="geometry" />
        </mxCell>
        <mxCell id="REJr0tu38mBbnm2SPOuz-262" style="edgeStyle=orthogonalEdgeStyle;rounded=0;orthogonalLoop=1;jettySize=auto;html=1;exitX=0.25;exitY=0;exitDx=0;exitDy=0;entryX=0.25;entryY=1;entryDx=0;entryDy=0;" parent="1" source="REJr0tu38mBbnm2SPOuz-206" target="REJr0tu38mBbnm2SPOuz-172" edge="1">
          <mxGeometry relative="1" as="geometry" />
        </mxCell>
        <mxCell id="REJr0tu38mBbnm2SPOuz-265" style="edgeStyle=orthogonalEdgeStyle;rounded=0;orthogonalLoop=1;jettySize=auto;html=1;exitX=0.75;exitY=0;exitDx=0;exitDy=0;entryX=0.5;entryY=1;entryDx=0;entryDy=0;" parent="1" source="REJr0tu38mBbnm2SPOuz-206" target="REJr0tu38mBbnm2SPOuz-188" edge="1">
          <mxGeometry relative="1" as="geometry" />
        </mxCell>
        <mxCell id="mDDYVCjT5NGg4LR3tMuF-2" style="edgeStyle=orthogonalEdgeStyle;rounded=0;orthogonalLoop=1;jettySize=auto;html=1;exitX=0.5;exitY=1;exitDx=0;exitDy=0;entryX=0.5;entryY=0;entryDx=0;entryDy=0;" edge="1" parent="1" source="REJr0tu38mBbnm2SPOuz-206" target="mDDYVCjT5NGg4LR3tMuF-1">
          <mxGeometry relative="1" as="geometry" />
        </mxCell>
        <mxCell id="REJr0tu38mBbnm2SPOuz-206" value="&lt;font style=&quot;font-size: 16px;&quot;&gt;Day&lt;/font&gt;" style="rounded=1;whiteSpace=wrap;html=1;fillColor=#f5f5f5;strokeColor=#666666;fontColor=#333333;" parent="1" vertex="1">
          <mxGeometry x="2480" y="1090" width="170" height="60" as="geometry" />
        </mxCell>
        <mxCell id="REJr0tu38mBbnm2SPOuz-225" style="edgeStyle=orthogonalEdgeStyle;rounded=0;orthogonalLoop=1;jettySize=auto;html=1;exitX=1;exitY=0.5;exitDx=0;exitDy=0;entryX=0;entryY=0.5;entryDx=0;entryDy=0;" parent="1" source="REJr0tu38mBbnm2SPOuz-207" target="REJr0tu38mBbnm2SPOuz-224" edge="1">
          <mxGeometry relative="1" as="geometry" />
        </mxCell>
        <mxCell id="REJr0tu38mBbnm2SPOuz-263" style="edgeStyle=orthogonalEdgeStyle;rounded=0;orthogonalLoop=1;jettySize=auto;html=1;exitX=0.75;exitY=0;exitDx=0;exitDy=0;entryX=0.5;entryY=1;entryDx=0;entryDy=0;" parent="1" source="REJr0tu38mBbnm2SPOuz-207" target="REJr0tu38mBbnm2SPOuz-172" edge="1">
          <mxGeometry relative="1" as="geometry">
            <Array as="points">
              <mxPoint x="3318" y="1030" />
              <mxPoint x="2390" y="1030" />
            </Array>
          </mxGeometry>
        </mxCell>
        <mxCell id="REJr0tu38mBbnm2SPOuz-283" style="edgeStyle=orthogonalEdgeStyle;rounded=0;orthogonalLoop=1;jettySize=auto;html=1;exitX=0.25;exitY=0;exitDx=0;exitDy=0;entryX=0.75;entryY=1;entryDx=0;entryDy=0;" parent="1" source="REJr0tu38mBbnm2SPOuz-207" target="REJr0tu38mBbnm2SPOuz-159" edge="1">
          <mxGeometry relative="1" as="geometry" />
        </mxCell>
        <mxCell id="REJr0tu38mBbnm2SPOuz-207" value="&lt;font style=&quot;font-size: 16px;&quot;&gt;Meal&lt;/font&gt;" style="rounded=1;whiteSpace=wrap;html=1;fillColor=#f5f5f5;strokeColor=#666666;fontColor=#333333;" parent="1" vertex="1">
          <mxGeometry x="3190" y="1090" width="170" height="60" as="geometry" />
        </mxCell>
        <mxCell id="REJr0tu38mBbnm2SPOuz-264" style="edgeStyle=orthogonalEdgeStyle;rounded=0;orthogonalLoop=1;jettySize=auto;html=1;exitX=0.75;exitY=0;exitDx=0;exitDy=0;entryX=0.75;entryY=1;entryDx=0;entryDy=0;" parent="1" source="REJr0tu38mBbnm2SPOuz-208" target="REJr0tu38mBbnm2SPOuz-172" edge="1">
          <mxGeometry relative="1" as="geometry">
            <Array as="points">
              <mxPoint x="4038" y="1000" />
              <mxPoint x="2433" y="1000" />
            </Array>
          </mxGeometry>
        </mxCell>
        <mxCell id="REJr0tu38mBbnm2SPOuz-208" value="&lt;span style=&quot;font-size: 16px;&quot;&gt;Food&lt;/span&gt;" style="rounded=1;whiteSpace=wrap;html=1;fillColor=#f5f5f5;strokeColor=#666666;fontColor=#333333;" parent="1" vertex="1">
          <mxGeometry x="3910" y="1090" width="170" height="60" as="geometry" />
        </mxCell>
        <mxCell id="REJr0tu38mBbnm2SPOuz-220" style="edgeStyle=orthogonalEdgeStyle;rounded=0;orthogonalLoop=1;jettySize=auto;html=1;exitX=1;exitY=0.5;exitDx=0;exitDy=0;entryX=0;entryY=0.5;entryDx=0;entryDy=0;" parent="1" source="REJr0tu38mBbnm2SPOuz-219" target="REJr0tu38mBbnm2SPOuz-206" edge="1">
          <mxGeometry relative="1" as="geometry" />
        </mxCell>
        <mxCell id="REJr0tu38mBbnm2SPOuz-260" style="edgeStyle=orthogonalEdgeStyle;rounded=0;orthogonalLoop=1;jettySize=auto;html=1;exitX=0.25;exitY=0;exitDx=0;exitDy=0;entryX=0;entryY=0.5;entryDx=0;entryDy=0;" parent="1" source="REJr0tu38mBbnm2SPOuz-219" target="REJr0tu38mBbnm2SPOuz-149" edge="1">
          <mxGeometry relative="1" as="geometry" />
        </mxCell>
        <mxCell id="REJr0tu38mBbnm2SPOuz-219" value="&lt;font style=&quot;font-size: 16px;&quot;&gt;List of Days&lt;/font&gt;" style="rounded=1;whiteSpace=wrap;html=1;fillColor=#f5f5f5;strokeColor=#666666;fontColor=#333333;" parent="1" vertex="1">
          <mxGeometry x="2160" y="1090" width="170" height="60" as="geometry" />
        </mxCell>
        <mxCell id="REJr0tu38mBbnm2SPOuz-223" style="edgeStyle=orthogonalEdgeStyle;rounded=0;orthogonalLoop=1;jettySize=auto;html=1;exitX=1;exitY=0.5;exitDx=0;exitDy=0;entryX=0;entryY=0.5;entryDx=0;entryDy=0;" parent="1" source="REJr0tu38mBbnm2SPOuz-221" target="REJr0tu38mBbnm2SPOuz-207" edge="1">
          <mxGeometry relative="1" as="geometry" />
        </mxCell>
        <mxCell id="REJr0tu38mBbnm2SPOuz-231" style="edgeStyle=orthogonalEdgeStyle;rounded=0;orthogonalLoop=1;jettySize=auto;html=1;exitX=0.5;exitY=0;exitDx=0;exitDy=0;entryX=0.25;entryY=1;entryDx=0;entryDy=0;" parent="1" source="REJr0tu38mBbnm2SPOuz-221" target="REJr0tu38mBbnm2SPOuz-155" edge="1">
          <mxGeometry relative="1" as="geometry" />
        </mxCell>
        <mxCell id="REJr0tu38mBbnm2SPOuz-221" value="&lt;font style=&quot;font-size: 16px;&quot;&gt;List of Meals&lt;/font&gt;" style="rounded=1;whiteSpace=wrap;html=1;fillColor=#f5f5f5;strokeColor=#666666;fontColor=#333333;" parent="1" vertex="1">
          <mxGeometry x="2840" y="1090" width="170" height="60" as="geometry" />
        </mxCell>
        <mxCell id="REJr0tu38mBbnm2SPOuz-226" style="edgeStyle=orthogonalEdgeStyle;rounded=0;orthogonalLoop=1;jettySize=auto;html=1;exitX=1;exitY=0.5;exitDx=0;exitDy=0;entryX=0;entryY=0.5;entryDx=0;entryDy=0;" parent="1" source="REJr0tu38mBbnm2SPOuz-224" target="REJr0tu38mBbnm2SPOuz-208" edge="1">
          <mxGeometry relative="1" as="geometry" />
        </mxCell>
        <mxCell id="REJr0tu38mBbnm2SPOuz-224" value="&lt;font style=&quot;font-size: 16px;&quot;&gt;List of Foods&lt;/font&gt;" style="rounded=1;whiteSpace=wrap;html=1;fillColor=#f5f5f5;strokeColor=#666666;fontColor=#333333;" parent="1" vertex="1">
          <mxGeometry x="3550" y="1090" width="170" height="60" as="geometry" />
        </mxCell>
        <mxCell id="REJr0tu38mBbnm2SPOuz-248" style="edgeStyle=orthogonalEdgeStyle;rounded=0;orthogonalLoop=1;jettySize=auto;html=1;exitX=1;exitY=0.5;exitDx=0;exitDy=0;entryX=0.5;entryY=1;entryDx=0;entryDy=0;" parent="1" source="REJr0tu38mBbnm2SPOuz-238" target="REJr0tu38mBbnm2SPOuz-199" edge="1">
          <mxGeometry relative="1" as="geometry" />
        </mxCell>
        <mxCell id="REJr0tu38mBbnm2SPOuz-249" style="edgeStyle=orthogonalEdgeStyle;rounded=0;orthogonalLoop=1;jettySize=auto;html=1;exitX=0.5;exitY=0;exitDx=0;exitDy=0;entryX=0.25;entryY=1;entryDx=0;entryDy=0;" parent="1" source="REJr0tu38mBbnm2SPOuz-238" target="REJr0tu38mBbnm2SPOuz-162" edge="1">
          <mxGeometry relative="1" as="geometry" />
        </mxCell>
        <mxCell id="REJr0tu38mBbnm2SPOuz-238" value="&lt;font style=&quot;font-size: 16px;&quot;&gt;All Foods&lt;/font&gt;" style="rounded=1;whiteSpace=wrap;html=1;fillColor=#f5f5f5;strokeColor=#666666;fontColor=#333333;" parent="1" vertex="1">
          <mxGeometry x="1570" y="1680" width="170" height="60" as="geometry" />
        </mxCell>
        <mxCell id="REJr0tu38mBbnm2SPOuz-251" style="edgeStyle=orthogonalEdgeStyle;rounded=0;orthogonalLoop=1;jettySize=auto;html=1;exitX=0.75;exitY=0;exitDx=0;exitDy=0;entryX=0.5;entryY=1;entryDx=0;entryDy=0;" parent="1" source="REJr0tu38mBbnm2SPOuz-239" target="REJr0tu38mBbnm2SPOuz-196" edge="1">
          <mxGeometry relative="1" as="geometry" />
        </mxCell>
        <mxCell id="REJr0tu38mBbnm2SPOuz-266" style="edgeStyle=orthogonalEdgeStyle;rounded=0;orthogonalLoop=1;jettySize=auto;html=1;exitX=0.25;exitY=0;exitDx=0;exitDy=0;entryX=0.75;entryY=1;entryDx=0;entryDy=0;" parent="1" source="REJr0tu38mBbnm2SPOuz-239" target="REJr0tu38mBbnm2SPOuz-188" edge="1">
          <mxGeometry relative="1" as="geometry" />
        </mxCell>
        <mxCell id="REJr0tu38mBbnm2SPOuz-267" style="edgeStyle=orthogonalEdgeStyle;rounded=0;orthogonalLoop=1;jettySize=auto;html=1;exitX=0;exitY=0;exitDx=0;exitDy=0;entryX=0;entryY=1;entryDx=0;entryDy=0;" parent="1" source="REJr0tu38mBbnm2SPOuz-239" target="REJr0tu38mBbnm2SPOuz-172" edge="1">
          <mxGeometry relative="1" as="geometry" />
        </mxCell>
        <mxCell id="REJr0tu38mBbnm2SPOuz-268" style="edgeStyle=orthogonalEdgeStyle;rounded=0;orthogonalLoop=1;jettySize=auto;html=1;exitX=1;exitY=0;exitDx=0;exitDy=0;entryX=0.75;entryY=1;entryDx=0;entryDy=0;" parent="1" source="REJr0tu38mBbnm2SPOuz-239" target="REJr0tu38mBbnm2SPOuz-171" edge="1">
          <mxGeometry relative="1" as="geometry" />
        </mxCell>
        <mxCell id="REJr0tu38mBbnm2SPOuz-282" style="edgeStyle=orthogonalEdgeStyle;rounded=0;orthogonalLoop=1;jettySize=auto;html=1;exitX=1;exitY=0.5;exitDx=0;exitDy=0;entryX=0.75;entryY=1;entryDx=0;entryDy=0;" parent="1" source="REJr0tu38mBbnm2SPOuz-239" target="REJr0tu38mBbnm2SPOuz-155" edge="1">
          <mxGeometry relative="1" as="geometry" />
        </mxCell>
        <mxCell id="REJr0tu38mBbnm2SPOuz-239" value="&lt;font style=&quot;font-size: 16px;&quot;&gt;Daily Calories and Macros&lt;/font&gt;" style="rounded=1;whiteSpace=wrap;html=1;fillColor=#f5f5f5;strokeColor=#666666;fontColor=#333333;" parent="1" vertex="1">
          <mxGeometry x="1570" y="1030" width="170" height="60" as="geometry" />
        </mxCell>
        <mxCell id="REJr0tu38mBbnm2SPOuz-244" style="edgeStyle=orthogonalEdgeStyle;rounded=0;orthogonalLoop=1;jettySize=auto;html=1;exitX=0.25;exitY=0;exitDx=0;exitDy=0;entryX=0.5;entryY=1;entryDx=0;entryDy=0;" parent="1" source="REJr0tu38mBbnm2SPOuz-240" target="REJr0tu38mBbnm2SPOuz-155" edge="1">
          <mxGeometry relative="1" as="geometry" />
        </mxCell>
        <mxCell id="REJr0tu38mBbnm2SPOuz-246" style="edgeStyle=orthogonalEdgeStyle;rounded=0;orthogonalLoop=1;jettySize=auto;html=1;exitX=0.75;exitY=0;exitDx=0;exitDy=0;entryX=0.5;entryY=1;entryDx=0;entryDy=0;" parent="1" source="REJr0tu38mBbnm2SPOuz-240" target="REJr0tu38mBbnm2SPOuz-197" edge="1">
          <mxGeometry relative="1" as="geometry" />
        </mxCell>
        <mxCell id="REJr0tu38mBbnm2SPOuz-240" value="&lt;font style=&quot;font-size: 16px;&quot;&gt;Daily Meals&lt;/font&gt;" style="rounded=1;whiteSpace=wrap;html=1;fillColor=#f5f5f5;strokeColor=#666666;fontColor=#333333;" parent="1" vertex="1">
          <mxGeometry x="1600" y="630" width="170" height="60" as="geometry" />
        </mxCell>
        <mxCell id="REJr0tu38mBbnm2SPOuz-253" value="&lt;font style=&quot;font-size: 16px;&quot;&gt;All Foods&lt;/font&gt;" style="rounded=1;whiteSpace=wrap;html=1;fillColor=#f5f5f5;strokeColor=#666666;fontColor=#333333;" parent="1" vertex="1">
          <mxGeometry x="1070" y="1380" width="170" height="60" as="geometry" />
        </mxCell>
        <mxCell id="REJr0tu38mBbnm2SPOuz-254" value="&lt;font style=&quot;font-size: 16px;&quot;&gt;Daily Calories and Macros&lt;/font&gt;" style="rounded=1;whiteSpace=wrap;html=1;fillColor=#f5f5f5;strokeColor=#666666;fontColor=#333333;" parent="1" vertex="1">
          <mxGeometry x="1260" y="1380" width="170" height="60" as="geometry" />
        </mxCell>
        <mxCell id="REJr0tu38mBbnm2SPOuz-255" value="&lt;font style=&quot;font-size: 16px;&quot;&gt;Daily Meals&lt;/font&gt;" style="rounded=1;whiteSpace=wrap;html=1;fillColor=#f5f5f5;strokeColor=#666666;fontColor=#333333;" parent="1" vertex="1">
          <mxGeometry x="880" y="1380" width="170" height="60" as="geometry" />
        </mxCell>
        <mxCell id="REJr0tu38mBbnm2SPOuz-257" style="edgeStyle=orthogonalEdgeStyle;rounded=0;orthogonalLoop=1;jettySize=auto;html=1;exitX=0.25;exitY=1;exitDx=0;exitDy=0;entryX=0.5;entryY=0;entryDx=0;entryDy=0;" parent="1" source="REJr0tu38mBbnm2SPOuz-256" target="REJr0tu38mBbnm2SPOuz-255" edge="1">
          <mxGeometry relative="1" as="geometry" />
        </mxCell>
        <mxCell id="REJr0tu38mBbnm2SPOuz-258" style="edgeStyle=orthogonalEdgeStyle;rounded=0;orthogonalLoop=1;jettySize=auto;html=1;exitX=0.5;exitY=1;exitDx=0;exitDy=0;entryX=0.5;entryY=0;entryDx=0;entryDy=0;" parent="1" source="REJr0tu38mBbnm2SPOuz-256" target="REJr0tu38mBbnm2SPOuz-253" edge="1">
          <mxGeometry relative="1" as="geometry" />
        </mxCell>
        <mxCell id="REJr0tu38mBbnm2SPOuz-259" style="edgeStyle=orthogonalEdgeStyle;rounded=0;orthogonalLoop=1;jettySize=auto;html=1;exitX=0.75;exitY=1;exitDx=0;exitDy=0;entryX=0.5;entryY=0;entryDx=0;entryDy=0;" parent="1" source="REJr0tu38mBbnm2SPOuz-256" target="REJr0tu38mBbnm2SPOuz-254" edge="1">
          <mxGeometry relative="1" as="geometry" />
        </mxCell>
        <mxCell id="REJr0tu38mBbnm2SPOuz-256" value="&lt;font style=&quot;font-size: 16px;&quot;&gt;Settings&lt;/font&gt;" style="rounded=1;whiteSpace=wrap;html=1;fillColor=#f5f5f5;strokeColor=#666666;fontColor=#333333;" parent="1" vertex="1">
          <mxGeometry x="1070" y="1160" width="170" height="60" as="geometry" />
        </mxCell>
        <mxCell id="REJr0tu38mBbnm2SPOuz-274" style="edgeStyle=orthogonalEdgeStyle;rounded=0;orthogonalLoop=1;jettySize=auto;html=1;exitX=0.5;exitY=0;exitDx=0;exitDy=0;entryX=0.5;entryY=1;entryDx=0;entryDy=0;" parent="1" source="REJr0tu38mBbnm2SPOuz-271" target="REJr0tu38mBbnm2SPOuz-185" edge="1">
          <mxGeometry relative="1" as="geometry" />
        </mxCell>
        <mxCell id="REJr0tu38mBbnm2SPOuz-279" style="edgeStyle=orthogonalEdgeStyle;rounded=0;orthogonalLoop=1;jettySize=auto;html=1;exitX=0.5;exitY=1;exitDx=0;exitDy=0;entryX=0.5;entryY=0;entryDx=0;entryDy=0;" parent="1" source="REJr0tu38mBbnm2SPOuz-271" target="REJr0tu38mBbnm2SPOuz-278" edge="1">
          <mxGeometry relative="1" as="geometry" />
        </mxCell>
        <mxCell id="REJr0tu38mBbnm2SPOuz-281" style="edgeStyle=orthogonalEdgeStyle;rounded=0;orthogonalLoop=1;jettySize=auto;html=1;exitX=0.75;exitY=0;exitDx=0;exitDy=0;entryX=0.5;entryY=1;entryDx=0;entryDy=0;" parent="1" source="REJr0tu38mBbnm2SPOuz-271" target="REJr0tu38mBbnm2SPOuz-184" edge="1">
          <mxGeometry relative="1" as="geometry" />
        </mxCell>
        <mxCell id="REJr0tu38mBbnm2SPOuz-271" value="&lt;span style=&quot;font-size: 16px;&quot;&gt;List of Weights&lt;/span&gt;" style="rounded=1;whiteSpace=wrap;html=1;fillColor=#f5f5f5;strokeColor=#666666;fontColor=#333333;" parent="1" vertex="1">
          <mxGeometry x="4120" y="690" width="170" height="60" as="geometry" />
        </mxCell>
        <mxCell id="REJr0tu38mBbnm2SPOuz-280" style="edgeStyle=orthogonalEdgeStyle;rounded=0;orthogonalLoop=1;jettySize=auto;html=1;exitX=0;exitY=0.5;exitDx=0;exitDy=0;entryX=0.5;entryY=1;entryDx=0;entryDy=0;" parent="1" source="REJr0tu38mBbnm2SPOuz-278" target="REJr0tu38mBbnm2SPOuz-189" edge="1">
          <mxGeometry relative="1" as="geometry" />
        </mxCell>
        <mxCell id="REJr0tu38mBbnm2SPOuz-278" value="&lt;span style=&quot;font-size: 16px;&quot;&gt;Weight&lt;/span&gt;" style="rounded=1;whiteSpace=wrap;html=1;fillColor=#f5f5f5;strokeColor=#666666;fontColor=#333333;" parent="1" vertex="1">
          <mxGeometry x="4120" y="810" width="170" height="60" as="geometry" />
        </mxCell>
        <mxCell id="mDDYVCjT5NGg4LR3tMuF-1" value="&lt;font style=&quot;font-size: 16px;&quot;&gt;Day&#39;s Recorded Daily Calories and Macros&lt;/font&gt;" style="rounded=1;whiteSpace=wrap;html=1;fillColor=#f5f5f5;strokeColor=#666666;fontColor=#333333;" vertex="1" parent="1">
          <mxGeometry x="2480" y="1290" width="170" height="60" as="geometry" />
        </mxCell>
        <mxCell id="mDDYVCjT5NGg4LR3tMuF-7" value="&lt;span style=&quot;font-size: 16px;&quot;&gt;Day&#39;s Recorded Daily Calories and Macros&lt;/span&gt;" style="rounded=1;whiteSpace=wrap;html=1;fillColor=#f5f5f5;strokeColor=#666666;fontColor=#333333;" vertex="1" parent="1">
          <mxGeometry x="-350" y="1260" width="170" height="60" as="geometry" />
        </mxCell>
      </root>
    </mxGraphModel>
  </diagram>
</mxfile>
